<svg xmlns="http://www.w3.org/2000/svg" viewBox="0 0 64 64" role="img" aria-label="Portfolio icon">
  <defs>
    <linearGradient id="g" x1="0" y1="0" x2="1" y2="1">
      <stop offset="0%" stop-color="#0f172a" />
      <stop offset="100%" stop-color="#1d4ed8" />
    </linearGradient>
  </defs>
  <rect x="4" y="4" width="56" height="56" rx="14" fill="url(#g)" />
  <path d="M20 23.5h24a4 4 0 0 1 4 4V45a4 4 0 0 1-4 4H20a4 4 0 0 1-4-4V27.5a4 4 0 0 1 4-4Z" fill="#ffffff" opacity=".95" />
  <path d="M24 23.5v-2.5a8 8 0 0 1 8-8 8 8 0 0 1 8 8v2.5" fill="none" stroke="#93c5fd" stroke-width="3" stroke-linecap="round" />
  <path d="M26 35.5h4l2 3 2-6 2 6 2-3h4" fill="none" stroke="#1d4ed8" stroke-width="2.5" stroke-linecap="round" stroke-linejoin="round" />
</svg>
